# xmcd
#
# Track frame offsets:
# 150
# 17756
# 32838
# 49616
# 67915
# 82684
# 98551
# 116088
# 134298
# 150473
# 167015
# 181593
#
# Disc length: 2645 seconds
#
#
# Revision: 1
# Processed by: cddbd v1.5.2PL0 Copyright (c) Steve Scherf et al.
# Submitted via: FreeRIP 2.944 
#
DISCID=820a530c
DTITLE=Varios Artistas - Sertanejo Esso Ultron Music Colection
DYEAR=1900
DGENRE=Country
TTITLE0=João Paulo e Daniel - Hoje Eu Sei
TTITLE1=Leandro e Leonardo - Pense Em Mim
TTITLE2=Gian e Giovani - Sai Dessa Coração
TTITLE3=Chrystian e Ralf - É Só Dizer o Preço
TTITLE4=Tião Carreiro e Pardinho - Cezar e Pulinho - Boi Soberano
TTITLE5=Rick Renner - Poucas e Boas
TTITLE6=Gian e Giovani - Olha Amor
TTITLE7=Leandro e Leonardo - Festa de Rodeio
TTITLE8=Bruno e Marrone - Acorrentado em Você
TTITLE9=Chrystian e Ralf - Nova York
TTITLE10=Milionário e José Rico - Boneca Cobiçada
TTITLE11=João Paulo e Daniel - Cuida de Mim (Ao Vivo)
EXTD=
EXTT0=
EXTT1=
EXTT2=
EXTT3=
EXTT4=
EXTT5=
EXTT6=
EXTT7=
EXTT8=
EXTT9=
EXTT10=
EXTT11=
PLAYORDER=
